<svg xmlns:xlink="http://www.w3.org/1999/xlink" xmlns="http://www.w3.org/2000/svg" width="1641px" height="925px" viewBox="0 0 1641 925" style="overflow: hidden; display: block; width: 1641px; height: 925px;"><defs><path fill="rgb(51,102,153)" stroke="rgb(51,102,153)" d="M 5,-5 L 0,0 L 5,5 Z" fill-opacity="1" stroke-opacity="1" stroke-width="1" stroke-linecap="butt" stroke-linejoin="miter" stroke-miterlimit="10" id="ygc228_0"/></defs><g style="pointer-events:visiblePainted" transform="translate(736.75 668.75)" image-rendering="auto" shape-rendering="auto"><g><path fill="none" stroke="rgb(51,102,153)" d="M 235.75,-540.9193829006952 L 493.7348484848485,-452.28921568627453 L 495.1155762983305,-451.7384313336089" stroke-opacity="1" stroke-width="1" stroke-linecap="butt" stroke-linejoin="miter" stroke-miterlimit="10"/><use xlink:href="#ygc228_0" transform="matrix(-0.696619 -0.277888 0.277888 -0.696619 498.106 -450.546)" style="pointer-events: none;"/></g><g><path fill="none" stroke="rgb(51,102,153)" d="M 538.4697318377019,-431.1774358803231 L 642.5821128958316,-370.5873545737188" stroke-opacity="1" stroke-width="1" stroke-linecap="butt" stroke-linejoin="miter" stroke-miterlimit="10"/><use xlink:href="#ygc228_0" transform="matrix(-0.648219 -0.377243 0.377243 -0.648219 645.365 -368.968)" style="pointer-events: none;"/></g><g><path fill="none" stroke="rgb(51,102,153)" d="M -407.15635571870723,-287.24999999999983 L -205.84765951305403,-80.07331076075852" stroke-opacity="1" stroke-width="1" stroke-linecap="butt" stroke-linejoin="miter" stroke-miterlimit="10"/><use xlink:href="#ygc228_0" transform="matrix(-0.522658 -0.537893 0.537893 -0.522658 -203.604 -77.7642)" style="pointer-events: none;"/></g><g><path fill="none" stroke="rgb(51,102,153)" d="M -159.1690828141369,-53.6948513858851 L -37.93442224753861,44.95073224620817" stroke-opacity="1" stroke-width="1" stroke-linecap="butt" stroke-linejoin="miter" stroke-miterlimit="10"/><use xlink:href="#ygc228_0" transform="matrix(-0.581751 -0.473356 0.473356 -0.581751 -35.437 46.9828)" style="pointer-events: none;"/></g><g><path fill="none" stroke="rgb(51,102,153)" d="M 168.56864623243933,-535.25 L 142.19521723470987,-196.71893597996467" stroke-opacity="1" stroke-width="1" stroke-linecap="butt" stroke-linejoin="miter" stroke-miterlimit="10"/><use xlink:href="#ygc228_0" transform="matrix(0.0582526 -0.747734 0.747734 0.0582526 141.945 -193.509)" style="pointer-events: none;"/></g><g><path fill="none" stroke="rgb(51,102,153)" d="M 131.6013033482007,-155.79805029457137 L 33.53745166115592,25.074246770779318" stroke-opacity="1" stroke-width="1" stroke-linecap="butt" stroke-linejoin="miter" stroke-miterlimit="10"/><use xlink:href="#ygc228_0" transform="matrix(0.35747 -0.65933 0.65933 0.35747 32.0029 27.9047)" style="pointer-events: none;"/></g><g><path fill="none" stroke="rgb(51,102,153)" d="M 558.3823529411765,-96 L 641.6284093330376,-169.10908273528761" stroke-opacity="1" stroke-width="1" stroke-linecap="butt" stroke-linejoin="miter" stroke-miterlimit="10"/><use xlink:href="#ygc228_0" transform="matrix(-0.56353 0.494908 -0.494908 -0.56353 644.048 -171.234)" style="pointer-events: none;"/></g><g><path fill="none" stroke="rgb(51,102,153)" d="M 42.94906381030411,81.5 L 78.43846815002881,153.5130703285852" stroke-opacity="1" stroke-width="1" stroke-linecap="butt" stroke-linejoin="miter" stroke-miterlimit="10"/><use xlink:href="#ygc228_0" transform="matrix(-0.33154 -0.672742 0.672742 -0.33154 79.8617 156.401)" style="pointer-events: none;"/></g><g><path fill="none" stroke="rgb(51,102,153)" d="M 15.549068629813483,81.5 L -29.648647873105247,153.75296966131674" stroke-opacity="1" stroke-width="1" stroke-linecap="butt" stroke-linejoin="miter" stroke-miterlimit="10"/><use xlink:href="#ygc228_0" transform="matrix(0.39775 -0.635842 0.635842 0.39775 -31.3561 156.483)" style="pointer-events: none;"/></g><g><path fill="none" stroke="rgb(51,102,153)" d="M -5.306147540983602,81.5 L -76.87841258012566,129.96503255521975" stroke-opacity="1" stroke-width="1" stroke-linecap="butt" stroke-linejoin="miter" stroke-miterlimit="10"/><use xlink:href="#ygc228_0" transform="matrix(0.621017 -0.420521 0.420521 0.621017 -79.5444 131.77)" style="pointer-events: none;"/></g><g><path fill="none" stroke="rgb(51,102,153)" d="M -30.25,62.54280439791718 L -104.02812210262796,69.23299171342666" stroke-opacity="1" stroke-width="1" stroke-linecap="butt" stroke-linejoin="miter" stroke-miterlimit="10"/><use xlink:href="#ygc228_0" transform="matrix(0.746935 -0.067732 0.067732 0.746935 -107.235 69.5238)" style="pointer-events: none;"/></g><g><path fill="none" stroke="rgb(51,102,153)" d="M 70.55696721311476,81.5 L 153.0976812786145,132.46137204448868" stroke-opacity="1" stroke-width="1" stroke-linecap="butt" stroke-linejoin="miter" stroke-miterlimit="10"/><use xlink:href="#ygc228_0" transform="matrix(-0.638167 -0.39401 0.39401 -0.638167 155.837 134.153)" style="pointer-events: none;"/></g><g><path fill="none" stroke="rgb(51,102,153)" d="M 92,66.63256281407035 L 164.822946662952,78.10858094145817" stroke-opacity="1" stroke-width="1" stroke-linecap="butt" stroke-linejoin="miter" stroke-miterlimit="10"/><use xlink:href="#ygc228_0" transform="matrix(-0.740857 -0.11675 0.11675 -0.740857 168.003 78.6098)" style="pointer-events: none;"/></g><g><path fill="none" stroke="rgb(51,102,153)" d="M 105.75,-574.6677507950275 L -0.08836635688889594,-593.259075281424" stroke-opacity="1" stroke-width="1" stroke-linecap="butt" stroke-linejoin="miter" stroke-miterlimit="10"/><use xlink:href="#ygc228_0" transform="matrix(0.73869 0.129757 -0.129757 0.73869 -3.25948 -593.816)" style="pointer-events: none;"/></g><g><path fill="none" stroke="rgb(51,102,153)" d="M 105.75000000000001,-542.191364412877 L 16.483109503619346,-513.2707656904323" stroke-opacity="1" stroke-width="1" stroke-linecap="butt" stroke-linejoin="miter" stroke-miterlimit="10"/><use xlink:href="#ygc228_0" transform="matrix(0.713489 -0.231156 0.231156 0.713489 13.4202 -512.278)" style="pointer-events: none;"/></g><g><path fill="none" stroke="rgb(51,102,153)" d="M 125.73260701517054,-535.25 L 13.097101340653298,-465.19276323488367" stroke-opacity="1" stroke-width="1" stroke-linecap="butt" stroke-linejoin="miter" stroke-miterlimit="10"/><use xlink:href="#ygc228_0" transform="matrix(0.636861 -0.396116 0.396116 0.636861 10.3631 -463.492)" style="pointer-events: none;"/></g><g><path fill="none" stroke="rgb(51,102,153)" d="M 156.51373232553593,-535.25 L 96.87884093905203,-417.95964012452026" stroke-opacity="1" stroke-width="1" stroke-linecap="butt" stroke-linejoin="miter" stroke-miterlimit="10"/><use xlink:href="#ygc228_0" transform="matrix(0.339916 -0.668549 0.668549 0.339916 95.4196 -415.09)" style="pointer-events: none;"/></g><g><path fill="none" stroke="rgb(51,102,153)" d="M 183.5440314067896,-535.25 L 237.09697941938117,-418.048275486739" stroke-opacity="1" stroke-width="1" stroke-linecap="butt" stroke-linejoin="miter" stroke-miterlimit="10"/><use xlink:href="#ygc228_0" transform="matrix(-0.3117 -0.682161 0.682161 -0.3117 238.435 -415.12)" style="pointer-events: none;"/></g><g><path fill="none" stroke="rgb(51,102,153)" d="M 201.93742857142857,-535.25 L 305.5454172958898,-442.230991470948" stroke-opacity="1" stroke-width="1" stroke-linecap="butt" stroke-linejoin="miter" stroke-miterlimit="10"/><use xlink:href="#ygc228_0" transform="matrix(-0.558081 -0.501044 0.501044 -0.558081 307.941 -440.08)" style="pointer-events: none;"/></g><g><path fill="none" stroke="rgb(51,102,153)" d="M 235.75,-547.9351501355568 L 364.64891780520315,-517.5648797682354" stroke-opacity="1" stroke-width="1" stroke-linecap="butt" stroke-linejoin="miter" stroke-miterlimit="10"/><use xlink:href="#ygc228_0" transform="matrix(-0.730011 -0.172 0.172 -0.730011 367.783 -516.826)" style="pointer-events: none;"/></g><g><path fill="none" stroke="rgb(51,102,153)" d="M 235.75,-572.9152146248348 L 373.56586291337146,-593.4078283750586" stroke-opacity="1" stroke-width="1" stroke-linecap="butt" stroke-linejoin="miter" stroke-miterlimit="10"/><use xlink:href="#ygc228_0" transform="matrix(-0.741844 0.110309 -0.110309 -0.741844 376.751 -593.881)" style="pointer-events: none;"/></g><g><path fill="none" stroke="rgb(51,102,153)" d="M 694.1424959041512,-346.25 L 641.1593891467471,-282.2671380815974" stroke-opacity="1" stroke-width="1" stroke-linecap="butt" stroke-linejoin="miter" stroke-miterlimit="10"/><use xlink:href="#ygc228_0" transform="matrix(0.478346 -0.577655 0.577655 0.478346 639.106 -279.787)" style="pointer-events: none;"/></g><g><path fill="none" stroke="rgb(51,102,153)" d="M 730.2374127652361,-346.25 L 770.375,-300.405303030303 L 770.8065467126684,-300.405303030303" stroke-opacity="1" stroke-width="1" stroke-linecap="butt" stroke-linejoin="miter" stroke-miterlimit="10"/><use xlink:href="#ygc228_0" transform="matrix(-0.75 0 0 -0.75 774.026 -300.405)" style="pointer-events: none;"/></g><g><path fill="none" stroke="rgb(51,102,153)" d="M 667.7082424020983,-208.18989493842815 L 701.8793699500842,-335.0385029098189" stroke-opacity="1" stroke-width="1" stroke-linecap="butt" stroke-linejoin="miter" stroke-miterlimit="10"/><use xlink:href="#ygc228_0" transform="matrix(-0.195084 0.724184 -0.724184 -0.195084 702.717 -338.147)" style="pointer-events: none;"/></g><g><path fill="none" stroke="rgb(51,102,153)" d="M -516.25,-297.651037165082 L -586.1983949250313,-278.281642519596" stroke-opacity="1" stroke-width="1" stroke-linecap="butt" stroke-linejoin="miter" stroke-miterlimit="10"/><use xlink:href="#ygc228_0" transform="matrix(0.7228 -0.20015 0.20015 0.7228 -589.301 -277.422)" style="pointer-events: none;"/></g><g><path fill="none" stroke="rgb(51,102,153)" d="M -476.0751341479912,-287.24999999999983 L -566.75,-210.5392156862745 L -566.75,-210.5392156862745 L -568.0789985535904,-209.78082578082692" stroke-opacity="1" stroke-width="1" stroke-linecap="butt" stroke-linejoin="miter" stroke-miterlimit="10"/><use xlink:href="#ygc228_0" transform="matrix(0.651401 -0.371721 0.371721 0.651401 -570.875 -208.185)" style="pointer-events: none;"/></g><g><path fill="none" stroke="rgb(51,102,153)" d="M -448.88448143035987,-287.24999999999983 L -487.18807356340733,-171.9914463710201" stroke-opacity="1" stroke-width="1" stroke-linecap="butt" stroke-linejoin="miter" stroke-miterlimit="10"/><use xlink:href="#ygc228_0" transform="matrix(0.236526 -0.711727 0.711727 0.236526 -488.203 -168.936)" style="pointer-events: none;"/></g><g><path fill="none" stroke="rgb(51,102,153)" d="M -423.6797872340425,-287.24999999999983 L -370.812440863505,-171.13947292452025" stroke-opacity="1" stroke-width="1" stroke-linecap="butt" stroke-linejoin="miter" stroke-miterlimit="10"/><use xlink:href="#ygc228_0" transform="matrix(-0.31079 -0.682576 0.682576 -0.31079 -369.478 -168.209)" style="pointer-events: none;"/></g><g><path fill="none" stroke="rgb(51,102,153)" d="M -387.13468809073714,-287.24999999999983 L -261.2184729631597,-208.4219789319662" stroke-opacity="1" stroke-width="1" stroke-linecap="butt" stroke-linejoin="miter" stroke-miterlimit="10"/><use xlink:href="#ygc228_0" transform="matrix(-0.635703 -0.397972 0.397972 -0.635703 -258.489 -206.714)" style="pointer-events: none;"/></g><g><path fill="none" stroke="rgb(51,102,153)" d="M -360.25,-300.77993348115285 L -264.3497496022724,-278.0711641988438" stroke-opacity="1" stroke-width="1" stroke-linecap="butt" stroke-linejoin="miter" stroke-miterlimit="10"/><use xlink:href="#ygc228_0" transform="matrix(-0.729818 -0.172818 0.172818 -0.729818 -261.217 -277.329)" style="pointer-events: none;"/></g><g><path fill="none" stroke="rgb(51,102,153)" d="M 498.8522012578616,-40 L 472.85270362694956,-13.669298577611329" stroke-opacity="1" stroke-width="1" stroke-linecap="butt" stroke-linejoin="miter" stroke-miterlimit="10"/><use xlink:href="#ygc228_0" transform="matrix(0.526963 -0.533676 0.533676 0.526963 470.591 -11.3783)" style="pointer-events: none;"/></g><g><path fill="none" stroke="rgb(51,102,153)" d="M 571.8620071684588,-40 L 605.0103967921499,-19.538936493341172" stroke-opacity="1" stroke-width="1" stroke-linecap="butt" stroke-linejoin="miter" stroke-miterlimit="10"/><use xlink:href="#ygc228_0" transform="matrix(-0.63821 -0.393939 0.393939 -0.63821 607.75 -17.8478)" style="pointer-events: none;"/></g><g><path d="M 105.75,-591.25 L 235.75,-591.25 L 235.75,-535.25 L 105.75,-535.25 Z" stroke="rgb(0,0,0)" stroke-opacity="1" stroke-width="1" stroke-linecap="butt" stroke-linejoin="miter" stroke-miterlimit="10" fill="rgb(210,222,238)" fill-opacity="1"/></g><g><path d="M 646.6875,-395.625 L 776.6875,-395.625 L 776.6875,-339.625 L 646.6875,-339.625 Z" stroke="rgb(0,0,0)" stroke-opacity="1" stroke-width="1" stroke-linecap="butt" stroke-linejoin="miter" stroke-miterlimit="10" fill="rgb(210,222,238)" fill-opacity="1"/></g><g><path d="M 426.25,-569.75 C 399.7444,-569.75 378.25,-580.7211 378.25,-594.25 C 378.25,-607.7789 399.7444,-618.75 426.25,-618.75 C 452.7556,-618.75 474.25,-607.7789 474.25,-594.25 C 474.25,-580.7211 452.7556,-569.75 426.25,-569.75 Z" stroke="rgb(0,0,0)" stroke-opacity="1" stroke-width="1" stroke-linecap="butt" stroke-linejoin="miter" stroke-miterlimit="10" fill="rgb(210,222,238)" fill-opacity="1"/></g><g><path d="M 417.25,-491.75 C 390.7444,-491.75 369.25,-502.7211 369.25,-516.25 C 369.25,-529.7789 390.7444,-540.75 417.25,-540.75 C 443.7556,-540.75 465.25,-529.7789 465.25,-516.25 C 465.25,-502.7211 443.7556,-491.75 417.25,-491.75 Z" stroke="rgb(0,0,0)" stroke-opacity="1" stroke-width="1" stroke-linecap="butt" stroke-linejoin="miter" stroke-miterlimit="10" fill="rgb(210,222,238)" fill-opacity="1"/></g><g><path d="M 239.5,-364.75 C 212.99439999999998,-364.75 191.5,-375.7211 191.5,-389.25 C 191.5,-402.7789 212.99439999999998,-413.75 239.5,-413.75 C 266.0056,-413.75 287.5,-402.7789 287.5,-389.25 C 287.5,-375.7211 266.0056,-364.75 239.5,-364.75 Z" stroke="rgb(0,0,0)" stroke-opacity="1" stroke-width="1" stroke-linecap="butt" stroke-linejoin="miter" stroke-miterlimit="10" fill="rgb(210,222,238)" fill-opacity="1"/></g><g><path d="M 7.625,-413.75 C -22.124775,-413.75 -46.25,-424.7211 -46.25,-438.25 C -46.25,-451.7789 -22.124775,-462.75 7.625,-462.75 C 37.374775,-462.75 61.5,-451.7789 61.5,-438.25 C 61.5,-424.7211 37.374775,-413.75 7.625,-413.75 Z" stroke="rgb(0,0,0)" stroke-opacity="1" stroke-width="1" stroke-linecap="butt" stroke-linejoin="miter" stroke-miterlimit="10" fill="rgb(210,222,238)" fill-opacity="1"/></g><g><path d="M -44.375,-487 C -75.505275,-487 -100.75,-497.9711 -100.75,-511.5 C -100.75,-525.0289 -75.505275,-536 -44.375,-536 C -13.244724999999999,-536 12,-525.0289 12,-511.5 C 12,-497.9711 -13.244724999999999,-487 -44.375,-487 Z" stroke="rgb(0,0,0)" stroke-opacity="1" stroke-width="1" stroke-linecap="butt" stroke-linejoin="miter" stroke-miterlimit="10" fill="rgb(210,222,238)" fill-opacity="1"/></g><g><path d="M -52.75,-569.75 C -79.2556,-569.75 -100.75,-580.7211 -100.75,-594.25 C -100.75,-607.7789 -79.2556,-618.75 -52.75,-618.75 C -26.2444,-618.75 -4.75,-607.7789 -4.75,-594.25 C -4.75,-580.7211 -26.2444,-569.75 -52.75,-569.75 Z" stroke="rgb(0,0,0)" stroke-opacity="1" stroke-width="1" stroke-linecap="butt" stroke-linejoin="miter" stroke-miterlimit="10" fill="rgb(210,222,238)" fill-opacity="1"/></g><g><path d="M 357,-413.75 C 330.4944,-413.75 309,-424.7211 309,-438.25 C 309,-451.7789 330.4944,-462.75 357,-462.75 C 383.5056,-462.75 405,-451.7789 405,-438.25 C 405,-424.7211 383.5056,-413.75 357,-413.75 Z" stroke="rgb(0,0,0)" stroke-opacity="1" stroke-width="1" stroke-linecap="butt" stroke-linejoin="miter" stroke-miterlimit="10" fill="rgb(210,222,238)" fill-opacity="1"/></g><g><path d="M 94.25,-364.75 C 67.7444,-364.75 46.25,-375.7211 46.25,-389.25 C 46.25,-402.7789 67.7444,-413.75 94.25,-413.75 C 120.7556,-413.75 142.25,-402.7789 142.25,-389.25 C 142.25,-375.7211 120.7556,-364.75 94.25,-364.75 Z" stroke="rgb(0,0,0)" stroke-opacity="1" stroke-width="1" stroke-linecap="butt" stroke-linejoin="miter" stroke-miterlimit="10" fill="rgb(210,222,238)" fill-opacity="1"/></g><g><path d="M -516.25,-351.24999999999983 L -360.25,-351.24999999999983 L -360.25,-287.24999999999983 L -516.25,-287.24999999999983 Z" stroke="rgb(0,0,0)" stroke-opacity="1" stroke-width="1" stroke-linecap="butt" stroke-linejoin="miter" stroke-miterlimit="10" fill="rgb(210,222,238)" fill-opacity="1"/></g><g><path d="M -211.75,-252.24999999999994 C -238.25560000000002,-252.24999999999994 -259.75,-263.2210999999999 -259.75,-276.74999999999994 C -259.75,-290.27889999999996 -238.25560000000002,-301.24999999999994 -211.75,-301.24999999999994 C -185.24439999999998,-301.24999999999994 -163.75,-290.27889999999996 -163.75,-276.74999999999994 C -163.75,-263.2210999999999 -185.24439999999998,-252.24999999999994 -211.75,-252.24999999999994 Z" stroke="rgb(0,0,0)" stroke-opacity="1" stroke-width="1" stroke-linecap="butt" stroke-linejoin="miter" stroke-miterlimit="10" fill="rgb(210,222,238)" fill-opacity="1"/></g><g><path d="M -227,-162.5 C -253.50560000000002,-162.5 -275,-173.4711 -275,-187 C -275,-200.5289 -253.50560000000002,-211.5 -227,-211.5 C -200.49439999999998,-211.5 -179,-200.5289 -179,-187 C -179,-173.4711 -200.49439999999998,-162.5 -227,-162.5 Z" stroke="rgb(0,0,0)" stroke-opacity="1" stroke-width="1" stroke-linecap="butt" stroke-linejoin="miter" stroke-miterlimit="10" fill="rgb(210,222,238)" fill-opacity="1"/></g><g><path d="M -489,-118.5 C -515.5056,-118.5 -537,-129.4711 -537,-143 C -537,-156.5289 -515.5056,-167.5 -489,-167.5 C -462.4944,-167.5 -441,-156.5289 -441,-143 C -441,-129.4711 -462.4944,-118.5 -489,-118.5 Z" stroke="rgb(0,0,0)" stroke-opacity="1" stroke-width="1" stroke-linecap="butt" stroke-linejoin="miter" stroke-miterlimit="10" fill="rgb(210,222,238)" fill-opacity="1"/></g><g><path d="M -608,-162.5 C -643.893,-162.5 -673,-173.4711 -673,-187 C -673,-200.5289 -643.893,-211.5 -608,-211.5 C -572.107,-211.5 -543,-200.5289 -543,-187 C -543,-173.4711 -572.107,-162.5 -608,-162.5 Z" stroke="rgb(0,0,0)" stroke-opacity="1" stroke-width="1" stroke-linecap="butt" stroke-linejoin="miter" stroke-miterlimit="10" fill="rgb(210,222,238)" fill-opacity="1"/></g><g><path d="M -638.75,-252.24999999999994 C -665.2556,-252.24999999999994 -686.75,-263.2210999999999 -686.75,-276.74999999999994 C -686.75,-290.27889999999996 -665.2556,-301.24999999999994 -638.75,-301.24999999999994 C -612.2444,-301.24999999999994 -590.75,-290.27889999999996 -590.75,-276.74999999999994 C -590.75,-263.2210999999999 -612.2444,-252.24999999999994 -638.75,-252.24999999999994 Z" stroke="rgb(0,0,0)" stroke-opacity="1" stroke-width="1" stroke-linecap="butt" stroke-linejoin="miter" stroke-miterlimit="10" fill="rgb(210,222,238)" fill-opacity="1"/></g><g><path d="M -358,-118.5 C -384.5056,-118.5 -406,-129.4711 -406,-143 C -406,-156.5289 -384.5056,-167.5 -358,-167.5 C -331.4944,-167.5 -310,-156.5289 -310,-143 C -310,-129.4711 -331.4944,-118.5 -358,-118.5 Z" stroke="rgb(0,0,0)" stroke-opacity="1" stroke-width="1" stroke-linecap="butt" stroke-linejoin="miter" stroke-miterlimit="10" fill="rgb(210,222,238)" fill-opacity="1"/></g><g><path d="M -34.25,29.25 L 95.75,29.25 L 95.75,85.25 L -34.25,85.25 Z" stroke="rgb(0,0,0)" stroke-opacity="1" stroke-width="1" stroke-linecap="butt" stroke-linejoin="miter" stroke-miterlimit="10" fill="rgb(210,222,238)" fill-opacity="1"/></g><g><path d="M 190.25,177 C 163.74439999999998,177 142.25,166.0289 142.25,152.5 C 142.25,138.9711 163.74439999999998,128 190.25,128 C 216.75560000000002,128 238.25,138.9711 238.25,152.5 C 238.25,166.0289 216.75560000000002,177 190.25,177 Z" stroke="rgb(0,0,0)" stroke-opacity="1" stroke-width="1" stroke-linecap="butt" stroke-linejoin="miter" stroke-miterlimit="10" fill="rgb(210,222,238)" fill-opacity="1"/></g><g><path d="M -32.75,206.75 C -59.2556,206.75 -80.75,195.7789 -80.75,182.25 C -80.75,168.7211 -59.2556,157.75 -32.75,157.75 C -6.244399999999999,157.75 15.25,168.7211 15.25,182.25 C 15.25,195.7789 -6.244399999999999,206.75 -32.75,206.75 Z" stroke="rgb(0,0,0)" stroke-opacity="1" stroke-width="1" stroke-linecap="butt" stroke-linejoin="miter" stroke-miterlimit="10" fill="rgb(210,222,238)" fill-opacity="1"/></g><g><path d="M -128.75,157.75 C -155.25560000000002,157.75 -176.75,146.7789 -176.75,133.25 C -176.75,119.7211 -155.25560000000002,108.75 -128.75,108.75 C -102.2444,108.75 -80.75,119.7211 -80.75,133.25 C -80.75,146.7789 -102.2444,157.75 -128.75,157.75 Z" stroke="rgb(0,0,0)" stroke-opacity="1" stroke-width="1" stroke-linecap="butt" stroke-linejoin="miter" stroke-miterlimit="10" fill="rgb(210,222,238)" fill-opacity="1"/></g><g><path d="M -156.75,94.25000000000006 C -183.25560000000002,94.25000000000006 -204.75,83.27890000000005 -204.75,69.75000000000006 C -204.75,56.22110000000006 -183.25560000000002,45.25000000000006 -156.75,45.25000000000006 C -130.24439999999998,45.25000000000006 -108.75,56.22110000000006 -108.75,69.75000000000006 C -108.75,83.27890000000005 -130.24439999999998,94.25000000000006 -156.75,94.25000000000006 Z" stroke="rgb(0,0,0)" stroke-opacity="1" stroke-width="1" stroke-linecap="butt" stroke-linejoin="miter" stroke-miterlimit="10" fill="rgb(210,222,238)" fill-opacity="1"/></g><g><path d="M 217.5,103.5 C 190.99439999999998,103.5 169.5,92.5289 169.5,79 C 169.5,65.4711 190.99439999999998,54.5 217.5,54.5 C 244.00560000000002,54.5 265.5,65.4711 265.5,79 C 265.5,92.5289 244.00560000000002,103.5 217.5,103.5 Z" stroke="rgb(0,0,0)" stroke-opacity="1" stroke-width="1" stroke-linecap="butt" stroke-linejoin="miter" stroke-miterlimit="10" fill="rgb(210,222,238)" fill-opacity="1"/></g><g><path d="M 81,206.75 C 54.4944,206.75 33,195.7789 33,182.25 C 33,168.7211 54.4944,157.75 81,157.75 C 107.5056,157.75 129,168.7211 129,182.25 C 129,195.7789 107.5056,206.75 81,206.75 Z" stroke="rgb(0,0,0)" stroke-opacity="1" stroke-width="1" stroke-linecap="butt" stroke-linejoin="miter" stroke-miterlimit="10" fill="rgb(210,222,238)" fill-opacity="1"/></g><g><path d="M 461.5,-96 L 591.5,-96 L 591.5,-40 L 461.5,-40 Z" stroke="rgb(0,0,0)" stroke-opacity="1" stroke-width="1" stroke-linecap="butt" stroke-linejoin="miter" stroke-miterlimit="10" fill="rgb(210,222,238)" fill-opacity="1"/></g><g><path d="M 639.5,26.25 C 612.9944,26.25 591.5,15.2789 591.5,1.75 C 591.5,-11.7789 612.9944,-22.75 639.5,-22.75 C 666.0056,-22.75 687.5,-11.7789 687.5,1.75 C 687.5,15.2789 666.0056,26.25 639.5,26.25 Z" stroke="rgb(0,0,0)" stroke-opacity="1" stroke-width="1" stroke-linecap="butt" stroke-linejoin="miter" stroke-miterlimit="10" fill="rgb(210,222,238)" fill-opacity="1"/></g><g><path d="M 448,36 C 421.4944,36 400,25.0289 400,11.5 C 400,-2.0289 421.4944,-13 448,-13 C 474.5056,-13 496,-2.0289 496,11.5 C 496,25.0289 474.5056,36 448,36 Z" stroke="rgb(0,0,0)" stroke-opacity="1" stroke-width="1" stroke-linecap="butt" stroke-linejoin="miter" stroke-miterlimit="10" fill="rgb(210,222,238)" fill-opacity="1"/></g><g><path d="M 652.5,-388.625 L 770.875,-388.625 L 770.875,-346.25 L 652.5,-346.25 Z" stroke="rgb(0,0,0)" stroke-opacity="1" stroke-width="1" stroke-linecap="butt" stroke-linejoin="miter" stroke-miterlimit="10" fill="rgb(210,222,238)" fill-opacity="1"/></g><g><path d="M 565.5,-245.5625 C 525.32745,-245.5625 492.75,-259.8921 492.75,-277.5625 C 492.75,-295.2329 525.32745,-309.5625 565.5,-309.5625 C 605.67255,-309.5625 638.25,-295.2329 638.25,-277.5625 C 638.25,-259.8921 605.67255,-245.5625 565.5,-245.5625 Z" stroke="rgb(0,0,0)" stroke-opacity="1" stroke-width="1" stroke-linecap="butt" stroke-linejoin="miter" stroke-miterlimit="10" fill="rgb(210,222,238)" fill-opacity="1"/></g><g><path d="M 790.9375,-237.375 C 755.5967,-237.375 726.9375,-251.7046 726.9375,-269.375 C 726.9375,-287.0454 755.5967,-301.375 790.9375,-301.375 C 826.2783,-301.375 854.9375,-287.0454 854.9375,-269.375 C 854.9375,-251.7046 826.2783,-237.375 790.9375,-237.375 Z" stroke="rgb(0,0,0)" stroke-opacity="1" stroke-width="1" stroke-linecap="butt" stroke-linejoin="miter" stroke-miterlimit="10" fill="rgb(210,222,238)" fill-opacity="1"/></g><g><path d="M 520.625,-462.75 L 555.625,-441.5625 L 520.625,-420.375 L 485.625,-441.5625 Z" stroke="rgb(0,0,0)" stroke-opacity="1" stroke-width="1" stroke-linecap="butt" stroke-linejoin="miter" stroke-miterlimit="10" fill="rgb(210,222,238)" fill-opacity="1"/></g><g><path d="M -176.75,-92.5 L -134.5,-68 L -176.75,-43.5 L -219,-68 Z" stroke="rgb(0,0,0)" stroke-opacity="1" stroke-width="1" stroke-linecap="butt" stroke-linejoin="miter" stroke-miterlimit="10" fill="rgb(210,222,238)" fill-opacity="1"/></g><g><path d="M 140.25,-192.9375 L 175.25,-171.75 L 140.25,-150.5625 L 105.25,-171.75 Z" stroke="rgb(0,0,0)" stroke-opacity="1" stroke-width="1" stroke-linecap="butt" stroke-linejoin="miter" stroke-miterlimit="10" fill="rgb(210,222,238)" fill-opacity="1"/></g><g><path d="M 662,-211.5 L 704.25,-187 L 662,-162.5 L 619.75,-187 Z" stroke="rgb(0,0,0)" stroke-opacity="1" stroke-width="1" stroke-linecap="butt" stroke-linejoin="miter" stroke-miterlimit="10" fill="rgb(210,222,238)" fill-opacity="1"/></g><g><path d="M -30.25,32.5 L 92,32.5 L 92,81.5 L -30.25,81.5 Z" stroke="rgb(0,0,0)" stroke-opacity="1" stroke-width="1" stroke-linecap="butt" stroke-linejoin="miter" stroke-miterlimit="10" fill="rgb(210,222,238)" fill-opacity="1"/></g><g transform="matrix(0.9457453272112161 0.3249088734678538 -0.3249088734678538 0.9457453272112161 366.26616895993266 -490.79398437940324)"><text font-family="Arial" font-size="12px" font-style="normal" font-weight="normal" text-anchor="start" fill="rgb(0,0,0)" fill-opacity="1" dy="1em" transform="translate(0 0)">m</text></g><g transform="matrix(0.864292021930178 0.5029903585833876 -0.5029903585833876 0.864292021930178 595.6600403779797 -392.10942073798657)"><text font-family="Arial" font-size="12px" font-style="normal" font-weight="normal" text-anchor="start" fill="rgb(0,0,0)" fill-opacity="1" dy="1em" transform="translate(0 0)">n</text></g><g transform="matrix(0.6968771181802764 0.717190548011303 -0.717190548011303 0.6968771181802764 -320.4676350152466 -190.85950394939383)"><text font-family="Arial" font-size="12px" font-style="normal" font-weight="normal" text-anchor="start" fill="rgb(0,0,0)" fill-opacity="1" dy="1em" transform="translate(0 0)">m</text></g><g transform="matrix(0.7756678415870758 0.6311413467105821 -0.6311413467105821 0.7756678415870758 -96.5482791777292 3.7041742693292274)"><text font-family="Arial" font-size="12px" font-style="normal" font-weight="normal" text-anchor="start" fill="rgb(0,0,0)" fill-opacity="1" dy="1em" transform="translate(0 0)">n</text></g><g transform="matrix(0.07767014786973109 -0.9969791111803166 0.9969791111803166 0.07767014786973109 130.50730376938304 -317.06625960632806)"><text font-family="Arial" font-size="14px" font-style="normal" font-weight="normal" text-anchor="start" fill="rgb(0,0,0)" fill-opacity="1" dy="0.9285714285714286em" transform="translate(0 0)">m</text></g><g transform="matrix(0.4766264165915826 -0.8791059429938277 0.8791059429938277 0.4766264165915826 57.53762739665388 -61.154077323958475)"><text font-family="Arial" font-size="12px" font-style="normal" font-weight="normal" text-anchor="start" fill="rgb(0,0,0)" fill-opacity="1" dy="1em" transform="translate(0 0)">n</text></g><g transform="matrix(0.7513731647980035 -0.6598775395642984 0.6598775395642984 0.7513731647980035 606.1039218282108 -131.25597226838138)"><text font-family="Arial" font-size="12px" font-style="normal" font-weight="normal" text-anchor="start" fill="rgb(0,0,0)" fill-opacity="1" dy="1em" transform="translate(0 0)">m</text></g><g transform="matrix(0.26011243609869844 -0.9655783347749682 0.9655783347749682 0.26011243609869844 690.6507981342381 -274.1338190990279)"><text font-family="Arial" font-size="12px" font-style="normal" font-weight="normal" text-anchor="start" fill="rgb(0,0,0)" fill-opacity="1" dy="1em" transform="translate(0 0)">n</text></g><g transform="translate(105.75 -591.25)"><text font-family="Arial" font-size="12px" font-style="normal" font-weight="normal" text-anchor="middle" fill="rgb(0,0,0)" fill-opacity="1" transform="translate(65 20.5)"><tspan dy="1em" x="0">RecArea</tspan></text></g><g transform="translate(646.6875 -395.625)"><text font-family="Arial" font-size="12px" font-style="normal" font-weight="normal" text-anchor="middle" fill="rgb(0,0,0)" fill-opacity="1" transform="translate(65 20.5)"><tspan dy="1em" x="0">ActivityType</tspan></text></g><g transform="translate(378.25 -618.75)"><text font-family="Arial" font-size="12px" font-style="normal" font-weight="normal" text-anchor="middle" fill="rgb(0,0,0)" fill-opacity="1" transform="translate(48 17)"><tspan dy="1em" x="0">recAreaName</tspan></text></g><g transform="translate(369.25 -540.75)"><text font-family="Arial" font-size="12px" font-style="normal" font-weight="normal" text-anchor="middle" fill="rgb(0,0,0)" fill-opacity="1" transform="translate(48 17)"><tspan dy="1em" x="0">recAreaMapUrl</tspan></text></g><g transform="translate(191.5 -413.75)"><text font-family="Arial" font-size="12px" font-style="normal" font-weight="normal" text-anchor="middle" fill="rgb(0,0,0)" fill-opacity="1" transform="translate(48 17)"><tspan dy="1em" x="0">recAreaLat</tspan></text></g><g transform="translate(-46.25 -462.75)"><text font-family="Arial" font-size="12px" font-style="normal" font-weight="normal" text-anchor="middle" fill="rgb(0,0,0)" fill-opacity="1" transform="translate(53.875 17)"><tspan dy="1em" x="0">recAreaDirections</tspan></text></g><g transform="translate(-100.75 -536)"><text font-family="Arial" font-size="12px" font-style="normal" font-weight="normal" text-anchor="middle" fill="rgb(0,0,0)" fill-opacity="1" transform="translate(56.375 17)"><tspan dy="1em" x="0">recAreaDescription</tspan></text></g><g transform="translate(-100.75 -618.75)"><text font-family="Arial" font-size="12px" font-style="normal" font-weight="normal" text-decoration="underline" text-anchor="middle" fill="rgb(0,0,0)" fill-opacity="1" transform="translate(48 17)"><tspan dy="1em" x="0">recAreaId</tspan></text></g><g transform="translate(309 -462.75)"><text font-family="Arial" font-size="12px" font-style="normal" font-weight="normal" text-anchor="middle" fill="rgb(0,0,0)" fill-opacity="1" transform="translate(48 17)"><tspan dy="1em" x="0">recAreaLong</tspan></text></g><g transform="translate(46.25 -413.75)"><text font-family="Arial" font-size="12px" font-style="normal" font-weight="normal" text-anchor="middle" fill="rgb(0,0,0)" fill-opacity="1" transform="translate(48 17)"><tspan dy="1em" x="0">recAreaImageUrl</tspan></text></g><g transform="translate(-516.25 -351.24999999999983)"><text font-family="Arial" font-size="12px" font-style="normal" font-weight="normal" text-anchor="middle" fill="rgb(0,0,0)" fill-opacity="1" transform="translate(78 24.5)"><tspan dy="1em" x="0">Profile</tspan></text></g><g transform="translate(-259.75 -301.24999999999994)"><text font-family="Arial" font-size="12px" font-style="normal" font-weight="normal" text-anchor="middle" fill="rgb(0,0,0)" fill-opacity="1" transform="translate(48 17)"><tspan dy="1em" x="0">profileImageUrl</tspan></text></g><g transform="translate(-275 -211.5)"><text font-family="Arial" font-size="12px" font-style="normal" font-weight="normal" text-anchor="middle" fill="rgb(0,0,0)" fill-opacity="1" transform="translate(48 17)"><tspan dy="1em" x="0">profileHash</tspan></text></g><g transform="translate(-537 -167.5)"><text font-family="Arial" font-size="12px" font-style="normal" font-weight="normal" text-anchor="middle" fill="rgb(0,0,0)" fill-opacity="1" transform="translate(48 17)"><tspan dy="1em" x="0">profileAtHandle</tspan></text></g><g transform="translate(-673 -211.5)"><text font-family="Arial" font-size="12px" font-style="normal" font-weight="normal" text-anchor="middle" fill="rgb(0,0,0)" fill-opacity="1" transform="translate(65 17)"><tspan dy="1em" x="0">profileActivatationToken</tspan></text></g><g transform="translate(-686.75 -301.24999999999994)"><text font-family="Arial" font-size="12px" font-style="normal" font-weight="normal" text-decoration="underline" text-anchor="middle" fill="rgb(0,0,0)" fill-opacity="1" transform="translate(48 17)"><tspan dy="1em" x="0">profileId</tspan></text></g><g transform="translate(-406 -167.5)"><text font-family="Arial" font-size="12px" font-style="normal" font-weight="normal" text-anchor="middle" fill="rgb(0,0,0)" fill-opacity="1" transform="translate(48 17)"><tspan dy="1em" x="0">profileEmail</tspan></text></g><g transform="translate(-34.25 29.25)"><text font-family="Arial" font-size="12px" font-style="normal" font-weight="normal" text-anchor="middle" fill="rgb(0,0,0)" fill-opacity="1" transform="translate(65 20.5)"><tspan dy="1em" x="0">Review</tspan></text></g><g transform="translate(142.25 128)"><text font-family="Arial" font-size="12px" font-style="normal" font-weight="normal" text-anchor="middle" fill="rgb(0,0,0)" fill-opacity="1" transform="translate(48 17)"><tspan dy="1em" x="0">reviewDateTime</tspan></text></g><g transform="translate(-80.75 157.75)"><text font-family="Arial" font-size="12px" font-style="normal" font-weight="normal" text-decoration="underline" text-anchor="middle" fill="rgb(0,0,0)" fill-opacity="1" transform="translate(48 17)"><tspan dy="1em" x="0">reviewRecAreaId</tspan></text></g><g transform="translate(-176.75 108.75)"><text font-family="Arial" font-size="12px" font-style="normal" font-weight="normal" text-decoration="underline" text-anchor="middle" fill="rgb(0,0,0)" fill-opacity="1" transform="translate(48 17)"><tspan dy="1em" x="0">reviewProfileId</tspan></text></g><g transform="translate(-204.75 45.25000000000006)"><text font-family="Arial" font-size="12px" font-style="normal" font-weight="normal" text-decoration="underline" text-anchor="middle" fill="rgb(0,0,0)" fill-opacity="1" transform="translate(48 17)"><tspan dy="1em" x="0">reviewId</tspan></text></g><g transform="translate(169.5 54.5)"><text font-family="Arial" font-size="12px" font-style="normal" font-weight="normal" text-anchor="middle" fill="rgb(0,0,0)" fill-opacity="1" transform="translate(48 17)"><tspan dy="1em" x="0">reviewRating</tspan></text></g><g transform="translate(33 157.75)"><text font-family="Arial" font-size="12px" font-style="normal" font-weight="normal" text-anchor="middle" fill="rgb(0,0,0)" fill-opacity="1" transform="translate(48 17)"><tspan dy="1em" x="0">reviewContent</tspan></text></g><g transform="translate(461.5 -96)"><text font-family="Arial" font-size="12px" font-style="normal" font-weight="normal" text-anchor="middle" fill="rgb(0,0,0)" fill-opacity="1" transform="translate(65 20.5)"><tspan dy="1em" x="0">Activity</tspan></text></g><g transform="translate(591.5 -22.75)"><text font-family="Arial" font-size="12px" font-style="normal" font-weight="normal" text-anchor="middle" fill="rgb(0,0,0)" fill-opacity="1" transform="translate(48 17)"><tspan dy="1em" x="0">activityName</tspan></text></g><g transform="translate(400 -13)"><text font-family="Arial" font-size="12px" font-style="normal" font-weight="normal" text-decoration="underline" text-anchor="middle" fill="rgb(0,0,0)" fill-opacity="1" transform="translate(48 17)"><tspan dy="1em" x="0">activityId</tspan></text></g><g transform="translate(492.75 -309.5625)"><text font-family="Arial" font-size="12px" font-style="normal" font-weight="normal" text-decoration="underline" text-anchor="middle" fill="rgb(0,0,0)" fill-opacity="1" transform="translate(72.75 24.5)"><tspan dy="1em" x="0">activityTypeActivityId</tspan></text></g><g transform="translate(726.9375 -301.375)"><text font-family="Arial" font-size="12px" font-style="normal" font-weight="normal" text-decoration="underline" text-anchor="middle" fill="rgb(0,0,0)" fill-opacity="1" transform="translate(64 24.5)"><tspan dy="1em" x="0">activityTypeRecId</tspan></text></g><g transform="translate(485.625 -462.75)"><text font-family="Arial" font-size="12px" font-style="normal" font-weight="normal" text-anchor="middle" fill="rgb(0,0,0)" fill-opacity="1" transform="translate(35 13.6875)"><tspan dy="1em" x="0">have</tspan></text></g><g transform="translate(-219 -92.5)"><text font-family="Arial" font-size="12px" font-style="normal" font-weight="normal" text-anchor="middle" fill="rgb(0,0,0)" fill-opacity="1" transform="translate(42.25 17)"><tspan dy="1em" x="0">write</tspan></text></g><g transform="translate(105.25 -192.9375)"><text font-family="Arial" font-size="12px" font-style="normal" font-weight="normal" text-anchor="middle" fill="rgb(0,0,0)" fill-opacity="1" transform="translate(35 13.6875)"><tspan dy="1em" x="0">have</tspan></text></g><g transform="translate(619.75 -211.5)"><text font-family="Arial" font-size="12px" font-style="normal" font-weight="normal" text-anchor="middle" fill="rgb(0,0,0)" fill-opacity="1" transform="translate(42.25 17)"><tspan dy="1em" x="0">have</tspan></text></g></g></svg>